<?xml version="1.0" standalone="no"?>
<!DOCTYPE svg PUBLIC "-//W3C//DTD SVG 1.1//EN" "http://www.w3.org/Graphics/SVG/1.1/DTD/svg11.dtd">
<svg version="1.1" xmlns="http://www.w3.org/2000/svg" xmlns:xlink="http://www.w3.org/1999/xlink" preserveAspectRatio="xMidYMid meet"
 width="1024pt" height="1024pt" viewBox="0 0 1024 1024" class="logo-icon">
    <g fill="white" transform="translate(0.000000,1024.000000) scale(0.100000,-0.100000)">
        <path d="M3736 7888 c-108 -59 -263 -233 -322 -363 -22 -47 -27 -76 -31 -164
        -5 -115 103 -3720 113 -3786 10 -66 46 -118 94 -137 38 -14 761 10 825 28 98
        27 222 151 327 328 74 123 110 216 116 298 5 77 -8 107 -60 134 -28 15 -62 16
        -304 9 -198 -5 -282 -4 -308 5 -43 14 -91 67 -106 117 -7 24 -31 668 -65 1748
        -36 1173 -56 1719 -65 1740 -33 85 -108 100 -214 43z"/>
        <path d="M5521 7899 c-69 -5 -148 -16 -175 -25 -127 -41 -302 -182 -387 -312
        -57 -87 -82 -156 -83 -234 -1 -47 3 -61 22 -80 l23 -23 462 0 c398 0 477 -3
        572 -18 242 -40 384 -82 560 -167 384 -186 638 -469 809 -902 213 -535 275
        -1488 145 -2193 -122 -661 -409 -1106 -946 -1466 -62 -42 -109 -81 -118 -99
        -39 -75 5 -150 87 -150 78 0 211 20 301 46 581 165 1067 790 1291 1659 76 295
        115 580 123 910 15 601 -72 1175 -244 1610 -138 351 -306 615 -534 844 -261
        260 -554 424 -934 521 -326 83 -592 105 -974 79z"/>
        <path d="M3063 6988 c-42 -45 -1134 -2229 -1175 -2351 -32 -98 -33 -144 -1
        -179 43 -48 106 -62 223 -48 157 18 247 83 355 255 60 95 630 1237 670 1341
        58 150 82 393 65 665 -14 238 -42 349 -88 349 -10 0 -32 -15 -49 -32z"/>
        <path d="M5070 6964 c-102 -25 -146 -64 -171 -149 -9 -28 113 -4321 127 -4472
        6 -68 33 -119 74 -141 32 -17 360 -8 496 13 240 38 546 194 741 379 134 126
        167 207 109 265 l-27 26 -339 -4 c-379 -4 -372 -5 -404 64 -16 33 -24 233 -76
        1948 -36 1158 -63 1927 -70 1949 -15 52 -52 93 -102 113 -61 25 -270 30 -358
        9z"/>
    </g>
</svg>