<?xml version="1.0" standalone="no"?>
<!DOCTYPE svg PUBLIC "-//W3C//DTD SVG 20010904//EN"
 "http://www.w3.org/TR/2001/REC-SVG-20010904/DTD/svg10.dtd">
<svg version="1.0" xmlns="http://www.w3.org/2000/svg"
 width="500.000000pt" height="205.000000pt" viewBox="0 0 500.000000 205.000000"
 preserveAspectRatio="xMidYMid meet">

<g transform="translate(0.000000,205.000000) scale(0.100000,-0.100000)"
fill="#000000" stroke="none">
<path d="M686 1605 c-223 -57 -329 -219 -343 -525 -12 -266 54 -447 197 -539
89 -58 162 -75 315 -76 138 0 229 19 303 65 l32 20 0 285 0 285 -200 0 -201 0
3 -102 3 -103 78 -3 77 -3 0 -108 0 -108 -61 -7 c-127 -15 -221 30 -267 127
-44 94 -52 286 -16 406 19 64 73 127 134 154 37 17 64 21 150 20 61 -1 125 -8
153 -16 56 -18 55 -18 79 78 28 112 28 111 -49 135 -91 29 -302 36 -387 15z"/>
<path d="M2255 1568 c-3 -7 -4 -254 -3 -548 l3 -535 115 0 115 0 3 233 2 232
155 0 155 0 0 -222 c0 -123 4 -229 8 -236 6 -9 37 -12 118 -10 l109 3 0 545 0
545 -109 3 c-81 2 -112 -1 -118 -10 -4 -7 -8 -100 -8 -205 l0 -193 -155 0
-155 0 -2 203 -3 202 -113 3 c-84 2 -114 -1 -117 -10z"/>
<path d="M3945 1568 c-3 -7 -4 -254 -3 -548 l3 -535 85 0 c81 0 85 1 88 22 4
28 2 28 60 -1 140 -70 305 -58 389 30 55 57 82 143 90 284 13 234 -47 372
-179 416 -67 22 -185 15 -250 -14 l-48 -21 -2 187 -3 187 -113 3 c-84 2 -114
-1 -117 -10z m414 -523 c44 -22 61 -78 61 -196 0 -103 -12 -152 -45 -179 -21
-18 -106 -19 -157 -1 l-38 13 0 174 c0 96 1 174 3 174 1 0 20 7 42 15 52 18
99 19 134 0z"/>
<path d="M1354 1531 c-43 -26 -68 -90 -54 -140 31 -115 187 -135 240 -30 24
46 25 68 6 114 -29 68 -126 96 -192 56z"/>
<path d="M1740 1331 l0 -109 -57 -14 -58 -14 0 -79 0 -80 57 -3 56 -3 4 -197
c3 -187 4 -200 28 -247 35 -70 88 -104 182 -118 58 -8 86 -7 133 4 l60 14 0
85 0 85 -35 1 c-77 2 -91 5 -110 24 -18 18 -20 33 -20 185 l0 164 83 3 82 3 0
95 0 95 -82 3 -83 3 0 104 0 105 -120 0 -120 0 0 -109z"/>
<path d="M1306 1214 c-3 -9 -6 -170 -6 -358 0 -260 3 -346 13 -359 10 -15 27
-17 117 -15 l105 3 3 373 2 372 -114 0 c-95 0 -115 -3 -120 -16z"/>
<path d="M3144 1216 c-3 -8 -4 -142 -2 -298 3 -245 6 -288 21 -323 43 -96 112
-130 257 -130 95 1 108 4 237 61 6 3 13 -4 15 -18 3 -22 7 -23 83 -23 l80 0 0
370 0 370 -115 0 -115 0 -3 -267 -2 -268 -32 -16 c-18 -9 -56 -17 -85 -18 -42
-1 -57 3 -75 22 -23 22 -23 27 -26 287 l-3 265 -115 0 c-90 0 -116 -3 -120
-14z"/>
</g>
</svg>
